<svg xmlns="http://www.w3.org/2000/svg" width="500" height="500"><defs><clipPath id="a"><path d="M19 145h14v14H19zM19 173h14v14H19zM19 187h14v14H19zM19 215h14v14H19zM19 229h14v14H19zM19 243h14v14H19zM19 257h14v14H19zM19 271h14v14H19zM19 285h14v14H19zM19 299h14v14H19zM19 313h14v14H19zM19 341h14v14H19zM33 131h14v14H33zM33 145h14v14H33zM33 215h14v14H33zM33 271h14v14H33zM33 313h14v14H33zM33 341h14v14H33zM33 355h14v14H33zM47 131h14v14H47zM47 159h14v14H47zM47 173h14v14H47zM47 187h14v14H47zM47 215h14v14H47zM47 229h14v14H47zM47 257h14v14H47zM47 285h14v14H47zM47 299h14v14H47zM47 355h14v14H47zM61 215h14v14H61zM61 243h14v14H61zM61 285h14v14H61zM61 299h14v14H61zM61 327h14v14H61zM75 145h14v14H75zM75 201h14v14H75zM75 229h14v14H75zM75 243h14v14H75zM75 299h14v14H75zM75 355h14v14H75zM89 145h14v14H89zM89 173h14v14H89zM89 257h14v14H89zM89 271h14v14H89zM89 285h14v14H89zM89 299h14v14H89zM89 313h14v14H89zM89 327h14v14H89zM89 355h14v14H89zM103 131h14v14h-14zM103 159h14v14h-14zM103 187h14v14h-14zM103 215h14v14h-14zM103 243h14v14h-14zM103 271h14v14h-14zM103 299h14v14h-14zM103 327h14v14h-14zM103 355h14v14h-14zM117 173h14v14h-14zM117 201h14v14h-14zM117 215h14v14h-14zM117 257h14v14h-14zM117 271h14v14h-14zM117 299h14v14h-14zM117 341h14v14h-14zM117 355h14v14h-14zM131 33h14v14h-14zM131 47h14v14h-14zM131 61h14v14h-14zM131 89h14v14h-14zM131 103h14v14h-14zM131 145h14v14h-14zM131 159h14v14h-14zM131 187h14v14h-14zM131 215h14v14h-14zM131 229h14v14h-14zM131 243h14v14h-14zM131 257h14v14h-14zM131 271h14v14h-14zM131 285h14v14h-14zM131 313h14v14h-14zM131 327h14v14h-14zM131 341h14v14h-14zM131 355h14v14h-14zM131 439h14v14h-14zM131 453h14v14h-14zM145 19h14v14h-14zM145 47h14v14h-14zM145 61h14v14h-14zM145 75h14v14h-14zM145 89h14v14h-14zM145 145h14v14h-14zM145 173h14v14h-14zM145 187h14v14h-14zM145 229h14v14h-14zM145 243h14v14h-14zM145 299h14v14h-14zM145 341h14v14h-14zM145 383h14v14h-14zM145 397h14v14h-14zM145 425h14v14h-14zM145 439h14v14h-14zM145 467h14v14h-14zM159 47h14v14h-14zM159 103h14v14h-14zM159 117h14v14h-14zM159 145h14v14h-14zM159 159h14v14h-14zM159 201h14v14h-14zM159 215h14v14h-14zM159 243h14v14h-14zM159 257h14v14h-14zM159 327h14v14h-14zM159 341h14v14h-14zM159 383h14v14h-14zM159 397h14v14h-14zM159 411h14v14h-14zM159 425h14v14h-14zM159 467h14v14h-14zM173 75h14v14h-14zM173 159h14v14h-14zM173 229h14v14h-14zM173 271h14v14h-14zM173 285h14v14h-14zM173 327h14v14h-14zM173 369h14v14h-14zM173 383h14v14h-14zM173 397h14v14h-14zM173 425h14v14h-14zM173 467h14v14h-14zM187 19h14v14h-14zM187 33h14v14h-14zM187 47h14v14h-14zM187 61h14v14h-14zM187 75h14v14h-14zM187 89h14v14h-14zM187 103h14v14h-14zM187 145h14v14h-14zM187 187h14v14h-14zM187 201h14v14h-14zM187 215h14v14h-14zM187 243h14v14h-14zM187 271h14v14h-14zM187 285h14v14h-14zM187 327h14v14h-14zM187 341h14v14h-14zM187 355h14v14h-14zM187 369h14v14h-14zM187 411h14v14h-14zM187 425h14v14h-14zM201 33h14v14h-14zM201 61h14v14h-14zM201 117h14v14h-14zM201 131h14v14h-14zM201 145h14v14h-14zM201 173h14v14h-14zM201 201h14v14h-14zM201 215h14v14h-14zM201 257h14v14h-14zM201 271h14v14h-14zM201 313h14v14h-14zM201 397h14v14h-14zM201 439h14v14h-14zM201 453h14v14h-14zM215 19h14v14h-14zM215 47h14v14h-14zM215 61h14v14h-14zM215 75h14v14h-14zM215 89h14v14h-14zM215 103h14v14h-14zM215 117h14v14h-14zM215 187h14v14h-14zM215 201h14v14h-14zM215 229h14v14h-14zM215 243h14v14h-14zM215 271h14v14h-14zM215 313h14v14h-14zM215 383h14v14h-14zM215 397h14v14h-14zM215 411h14v14h-14zM215 425h14v14h-14zM215 439h14v14h-14zM229 75h14v14h-14zM229 117h14v14h-14zM229 145h14v14h-14zM229 173h14v14h-14zM229 201h14v14h-14zM229 243h14v14h-14zM229 257h14v14h-14zM229 285h14v14h-14zM229 299h14v14h-14zM229 313h14v14h-14zM229 369h14v14h-14zM229 383h14v14h-14zM229 411h14v14h-14zM229 425h14v14h-14zM229 439h14v14h-14zM243 19h14v14h-14zM243 33h14v14h-14zM243 61h14v14h-14zM243 89h14v14h-14zM243 103h14v14h-14zM243 159h14v14h-14zM243 173h14v14h-14zM243 201h14v14h-14zM243 229h14v14h-14zM243 243h14v14h-14zM243 257h14v14h-14zM243 271h14v14h-14zM243 285h14v14h-14zM243 299h14v14h-14zM243 313h14v14h-14zM243 327h14v14h-14zM243 341h14v14h-14zM243 369h14v14h-14zM243 383h14v14h-14zM243 411h14v14h-14zM243 439h14v14h-14zM257 19h14v14h-14zM257 33h14v14h-14zM257 89h14v14h-14zM257 117h14v14h-14zM257 145h14v14h-14zM257 187h14v14h-14zM257 215h14v14h-14zM257 243h14v14h-14zM257 299h14v14h-14zM257 313h14v14h-14zM257 327h14v14h-14zM257 341h14v14h-14zM257 355h14v14h-14zM257 369h14v14h-14zM257 383h14v14h-14zM257 411h14v14h-14zM257 425h14v14h-14zM257 467h14v14h-14zM271 47h14v14h-14zM271 61h14v14h-14zM271 103h14v14h-14zM271 131h14v14h-14zM271 145h14v14h-14zM271 187h14v14h-14zM271 215h14v14h-14zM271 257h14v14h-14zM271 299h14v14h-14zM271 313h14v14h-14zM271 355h14v14h-14zM271 369h14v14h-14zM271 397h14v14h-14zM271 411h14v14h-14zM271 439h14v14h-14zM271 453h14v14h-14zM285 19h14v14h-14zM285 33h14v14h-14zM285 47h14v14h-14zM285 89h14v14h-14zM285 117h14v14h-14zM285 131h14v14h-14zM285 159h14v14h-14zM285 173h14v14h-14zM285 187h14v14h-14zM285 201h14v14h-14zM285 229h14v14h-14zM285 257h14v14h-14zM285 285h14v14h-14zM285 327h14v14h-14zM285 341h14v14h-14zM285 355h14v14h-14zM285 369h14v14h-14zM285 383h14v14h-14zM285 411h14v14h-14zM285 453h14v14h-14zM285 467h14v14h-14zM299 19h14v14h-14zM299 33h14v14h-14zM299 61h14v14h-14zM299 75h14v14h-14zM299 103h14v14h-14zM299 117h14v14h-14zM299 131h14v14h-14zM299 159h14v14h-14zM299 187h14v14h-14zM299 201h14v14h-14zM299 215h14v14h-14zM299 243h14v14h-14zM299 271h14v14h-14zM299 313h14v14h-14zM299 355h14v14h-14zM299 425h14v14h-14zM299 439h14v14h-14zM313 19h14v14h-14zM313 75h14v14h-14zM313 117h14v14h-14zM313 145h14v14h-14zM313 159h14v14h-14zM313 201h14v14h-14zM313 229h14v14h-14zM313 257h14v14h-14zM313 313h14v14h-14zM313 341h14v14h-14zM313 383h14v14h-14zM313 397h14v14h-14zM313 439h14v14h-14zM313 467h14v14h-14zM327 61h14v14h-14zM327 75h14v14h-14zM327 89h14v14h-14zM327 103h14v14h-14zM327 117h14v14h-14zM327 131h14v14h-14zM327 145h14v14h-14zM327 187h14v14h-14zM327 215h14v14h-14zM327 229h14v14h-14zM327 243h14v14h-14zM327 271h14v14h-14zM327 313h14v14h-14zM327 341h14v14h-14zM327 355h14v14h-14zM327 369h14v14h-14zM327 383h14v14h-14zM327 397h14v14h-14zM327 411h14v14h-14zM327 439h14v14h-14zM327 453h14v14h-14zM327 467h14v14h-14zM341 33h14v14h-14zM341 47h14v14h-14zM341 61h14v14h-14zM341 117h14v14h-14zM341 173h14v14h-14zM341 187h14v14h-14zM341 341h14v14h-14zM341 383h14v14h-14zM341 397h14v14h-14zM341 411h14v14h-14zM341 425h14v14h-14zM341 453h14v14h-14zM341 467h14v14h-14zM355 19h14v14h-14zM355 75h14v14h-14zM355 89h14v14h-14zM355 103h14v14h-14zM355 131h14v14h-14zM355 159h14v14h-14zM355 173h14v14h-14zM355 201h14v14h-14zM355 257h14v14h-14zM355 271h14v14h-14zM355 327h14v14h-14zM355 355h14v14h-14zM355 369h14v14h-14zM355 383h14v14h-14zM355 397h14v14h-14zM355 411h14v14h-14zM355 425h14v14h-14zM355 467h14v14h-14zM369 131h14v14h-14zM369 173h14v14h-14zM369 187h14v14h-14zM369 201h14v14h-14zM369 215h14v14h-14zM369 257h14v14h-14zM369 271h14v14h-14zM369 285h14v14h-14zM369 299h14v14h-14zM369 355h14v14h-14zM369 411h14v14h-14zM369 425h14v14h-14zM383 159h14v14h-14zM383 187h14v14h-14zM383 201h14v14h-14zM383 215h14v14h-14zM383 229h14v14h-14zM383 257h14v14h-14zM383 271h14v14h-14zM383 285h14v14h-14zM383 299h14v14h-14zM383 341h14v14h-14zM383 355h14v14h-14zM383 383h14v14h-14zM383 411h14v14h-14zM397 131h14v14h-14zM397 159h14v14h-14zM397 201h14v14h-14zM397 229h14v14h-14zM397 299h14v14h-14zM397 313h14v14h-14zM397 341h14v14h-14zM397 355h14v14h-14zM397 411h14v14h-14zM397 425h14v14h-14zM397 439h14v14h-14zM397 453h14v14h-14zM397 467h14v14h-14zM411 145h14v14h-14zM411 173h14v14h-14zM411 201h14v14h-14zM411 229h14v14h-14zM411 243h14v14h-14zM411 271h14v14h-14zM411 285h14v14h-14zM411 313h14v14h-14zM411 327h14v14h-14zM411 341h14v14h-14zM411 355h14v14h-14zM411 369h14v14h-14zM411 383h14v14h-14zM411 397h14v14h-14zM411 411h14v14h-14zM411 439h14v14h-14zM411 467h14v14h-14zM425 131h14v14h-14zM425 145h14v14h-14zM425 229h14v14h-14zM425 243h14v14h-14zM425 257h14v14h-14zM425 299h14v14h-14zM425 313h14v14h-14zM425 327h14v14h-14zM425 341h14v14h-14zM425 397h14v14h-14zM425 425h14v14h-14zM425 453h14v14h-14zM425 467h14v14h-14zM439 131h14v14h-14zM439 159h14v14h-14zM439 173h14v14h-14zM439 187h14v14h-14zM439 201h14v14h-14zM439 215h14v14h-14zM439 229h14v14h-14zM439 299h14v14h-14zM439 327h14v14h-14zM439 383h14v14h-14zM439 397h14v14h-14zM453 131h14v14h-14zM453 145h14v14h-14zM453 159h14v14h-14zM453 187h14v14h-14zM453 201h14v14h-14zM453 215h14v14h-14zM453 271h14v14h-14zM453 327h14v14h-14zM453 341h14v14h-14zM453 355h14v14h-14zM453 383h14v14h-14zM453 397h14v14h-14zM453 411h14v14h-14zM453 467h14v14h-14zM467 145h14v14h-14zM467 159h14v14h-14zM467 173h14v14h-14zM467 187h14v14h-14zM467 215h14v14h-14zM467 229h14v14h-14zM467 243h14v14h-14zM467 285h14v14h-14zM467 313h14v14h-14zM467 341h14v14h-14zM467 411h14v14h-14zM467 439h14v14h-14z"/></clipPath><clipPath id="b"><path d="M19 19v98h98V19zm14 14h70v70H33z" clip-rule="evenodd"/></clipPath><clipPath id="c"><path d="M47 47h42v42H47z"/></clipPath><clipPath id="d"><path d="M481 19h-98v98h98zm-14 14v70h-70V33z" clip-rule="evenodd"/></clipPath><clipPath id="e"><path d="M453 47v42h-42V47z"/></clipPath><clipPath id="f"><path d="M19 481h98v-98H19zm14-14v-70h70v70z" clip-rule="evenodd"/></clipPath><clipPath id="g"><path d="M47 453v-42h42v42z"/></clipPath></defs><path fill="#fff" d="M0 0h500v500H0z" clip-path="url('#clip-path-background-color')"/><path d="M0 0h500v500H0z" clip-path="url('#a')"/><path d="M19 19h98v98H19z" clip-path="url('#b')"/><path d="M47 47h42v42H47z" clip-path="url('#c')"/><path d="M383 19h98v98h-98z" clip-path="url('#d')"/><path d="M411 47h42v42h-42z" clip-path="url('#e')"/><path d="M19 383h98v98H19z" clip-path="url('#f')"/><path d="M47 411h42v42H47z" clip-path="url('#g')"/></svg>